<?xml version="1.0" standalone="no"?>
<!DOCTYPE svg PUBLIC "-//W3C//DTD SVG 20010904//EN"
 "http://www.w3.org/TR/2001/REC-SVG-20010904/DTD/svg10.dtd">
<svg version="1.0" xmlns="http://www.w3.org/2000/svg"
 width="549.000000pt" height="549.000000pt" viewBox="0 0 549.000000 549.000000"
 preserveAspectRatio="xMidYMid meet">
<metadata>
Created by potrace 1.11, written by Peter Selinger 2001-2013
</metadata>
<g transform="translate(0.000000,549.000000) scale(0.100000,-0.100000)"
fill="#000000" stroke="none">
<path d="M2755 4510 c-22 -44 -45 -81 -52 -81 -7 -1 -16 -2 -20 -3 -5 -2 -39
-6 -76 -10 l-69 -9 64 -66 65 -66 -8 -45 c-4 -25 -10 -62 -14 -82 -3 -21 -3
-38 1 -38 4 0 36 16 71 35 35 19 70 35 77 35 8 0 44 -16 81 -36 36 -20 69 -33
72 -30 3 3 -1 41 -9 85 l-14 80 63 63 c34 34 61 63 60 64 -1 1 -24 5 -52 8
-126 15 -120 13 -146 69 -13 29 -31 64 -39 79 l-16 27 -39 -79z"/>
<path d="M4125 4250 l-38 -79 -89 -12 -89 -13 66 -66 c39 -40 64 -72 61 -81
-6 -15 -11 -42 -22 -118 -6 -40 -5 -44 8 -34 21 18 131 73 145 73 7 0 43 -16
79 -35 37 -20 69 -33 72 -31 2 3 -1 42 -9 87 l-13 81 61 59 c34 33 58 61 55
63 -4 2 -34 8 -67 12 -33 4 -63 9 -67 10 -5 1 -14 2 -21 3 -7 0 -26 29 -42 64
-50 107 -46 106 -90 17z"/>
<path d="M1385 4241 c-42 -87 -37 -83 -153 -97 l-63 -7 64 -66 65 -67 -15 -78
c-8 -43 -12 -80 -10 -83 3 -2 35 12 71 31 37 20 74 36 82 36 9 0 45 -16 81
-36 36 -19 67 -33 70 -30 3 3 -1 41 -9 85 l-14 80 63 63 64 63 -78 12 c-43 6
-83 12 -89 12 -6 1 -19 20 -30 44 -10 23 -28 59 -39 79 l-21 37 -39 -78z"/>
<path d="M446 3391 c-43 -87 -38 -83 -154 -97 l-63 -7 65 -66 64 -67 -14 -78
c-9 -43 -13 -80 -10 -83 2 -3 35 11 71 31 37 20 74 36 84 36 9 0 47 -18 85
-40 l68 -40 -6 43 c-4 23 -9 65 -12 92 l-6 50 61 58 c36 34 56 59 49 62 -7 2
-47 9 -88 15 -41 6 -75 12 -76 13 -1 1 -19 37 -41 80 l-39 78 -38 -80z"/>
<path d="M5065 3390 c-21 -44 -44 -80 -50 -81 -5 0 -45 -6 -88 -12 l-78 -12
64 -63 64 -63 -14 -81 c-8 -44 -12 -82 -9 -85 2 -2 35 12 72 31 37 20 73 36
80 36 7 0 42 -16 79 -36 36 -20 69 -33 72 -30 3 3 -1 41 -9 86 l-15 80 59 56
c61 59 69 74 41 75 -10 0 -27 2 -38 4 -11 2 -40 6 -64 9 -24 3 -44 6 -46 8 -1
2 -20 38 -42 81 l-39 78 -39 -81z"/>
<path d="M4240 3111 c-191 -36 -260 -66 -1140 -506 l-705 -353 3 50 c7 90 -37
148 -110 148 -33 0 -62 -14 -157 -74 -135 -85 -193 -116 -219 -116 -10 0 -49
25 -88 56 -155 127 -172 155 -110 188 18 10 55 40 82 67 47 48 48 49 21 49
-40 0 -109 -25 -237 -87 l-115 -55 -498 -53 c-494 -53 -567 -66 -617 -105
l-25 -20 35 0 c19 0 208 9 420 20 463 24 458 24 442 8 -7 -7 -12 -18 -12 -26
0 -12 12 -14 68 -9 l68 7 52 -106 c29 -59 51 -108 49 -110 -2 -2 -290 -28
-640 -58 -563 -48 -641 -56 -680 -75 -24 -12 -53 -31 -63 -43 l-19 -21 55 6
c30 4 179 9 330 12 151 4 283 9 294 12 18 5 18 4 2 -18 -24 -35 -21 -39 38
-39 52 0 55 -1 58 -27 l3 -26 31 26 c32 27 33 27 199 27 l167 0 -6 -30 c-7
-39 11 -39 49 0 29 30 30 30 139 30 l109 0 -21 -23 c-31 -33 -28 -63 8 -82 36
-19 37 -30 5 -77 -33 -49 -32 -72 7 -99 31 -23 32 -23 217 -12 162 10 207 17
350 52 266 67 337 90 515 167 93 41 171 74 172 74 2 0 -10 -21 -27 -47 l-30
-48 26 -3 c14 -2 25 -10 25 -18 0 -18 14 -18 30 1 9 11 33 15 85 15 63 0 73
-2 78 -19 3 -13 17 -22 42 -27 24 -4 39 -13 42 -25 5 -17 7 -17 50 2 46 19 63
18 63 -5 0 -11 13 -9 57 7 41 16 58 18 61 9 5 -17 27 -15 42 3 16 19 40 19
113 -2 53 -15 58 -18 54 -40 -6 -34 7 -37 40 -9 l30 25 62 -17 c60 -16 62 -18
57 -44 -7 -33 2 -35 37 -8 14 11 32 20 39 20 8 0 25 11 38 25 17 18 27 22 40
15 9 -5 70 -23 135 -40 132 -36 165 -35 244 1 l51 24 -236 145 c-130 80 -254
161 -277 180 -22 19 -83 84 -135 145 l-93 109 263 129 c145 71 326 159 403
197 234 114 392 232 464 345 54 85 43 108 -68 146 -31 11 -73 31 -94 46 -49
34 -111 38 -237 14z"/>
</g>
</svg>
